<svg width="72" height="72" viewBox="0 0 72 72" fill="none" xmlns="http://www.w3.org/2000/svg">
<path id="Union" fill-rule="evenodd" clip-rule="evenodd" d="M64.8066 44.4053C65.5835 41.7383 66 38.9178 66 36C66 28.7962 63.4609 22.1854 59.2288 17.0138L56.1212 20.1214C54.9496 21.293 53.0501 21.293 51.8786 20.1214C50.707 18.9498 50.707 17.0503 51.8786 15.8788L54.9862 12.7711C50.5414 9.13391 45.0337 6.74719 39 6.14813V15C39 16.6569 37.6569 18 36 18C34.3432 18 33 16.6569 33 15V6.14812C26.9663 6.74719 21.4585 9.13395 17.0137 12.7713L20.1212 15.8788C21.2928 17.0503 21.2928 18.9498 20.1212 20.1214C18.9496 21.293 17.0501 21.293 15.8786 20.1214L12.7711 17.0139C8.53906 22.1855 6 28.7962 6 36C6 38.9178 6.41654 41.7383 7.19341 44.4053C13.1978 36.4084 22.4544 30.9933 32.9999 30.1232V27.0001C32.9999 25.3432 34.343 24.0001 35.9999 24.0001C37.6567 24.0001 38.9999 25.3432 38.9999 27.0001V30.1232C49.5454 30.9932 58.8022 36.4084 64.8066 44.4053ZM10.0128 50.9988C14.7317 42.8425 23.1721 37.1239 32.9999 36.1481V42.5118C33.9382 42.1802 34.9479 41.9998 35.9997 41.9998C37.0517 41.9998 38.0615 42.1803 38.9999 42.512V36.1481C48.8278 37.1238 57.2682 42.8425 61.9872 50.9988C57.7969 58.2434 50.6642 63.573 42.2231 65.3537C41.1898 65.5717 40.1369 65.7365 39.0673 65.8451C38.0588 65.9475 37.0355 66 36 66C33.9289 66 31.9069 65.7901 29.954 65.3905C21.4356 63.6474 14.2324 58.294 10.0128 50.9988ZM3.26426 51C1.16846 46.4337 0 41.3533 0 36C0 16.1177 16.1178 0 36 0C55.8823 0 72 16.1177 72 36C72 41.3533 70.8316 46.4336 68.7358 51C63.0781 63.3269 50.6626 71.9079 36.2328 71.9993L36.1601 71.9996L36.0625 71.9999L36 72C22.331 72 10.4412 64.3818 4.34501 53.1597C3.96149 52.4538 3.60091 51.7335 3.26426 51ZM38.9999 51.0001C38.9999 52.6569 37.6567 54.0001 35.9999 54.0001C34.343 54.0001 32.9999 52.6569 32.9999 51.0001C32.9999 49.3432 34.343 48.0001 35.9999 48.0001C37.6567 48.0001 38.9999 49.3432 38.9999 51.0001ZM44.9999 51.0001C44.9999 55.9706 40.9704 60.0001 35.9999 60.0001C31.0293 60.0001 26.9999 55.9706 26.9999 51.0001C26.9999 46.0295 31.0293 42.0001 35.9999 42.0001C40.9704 42.0001 44.9999 46.0295 44.9999 51.0001Z" fill="#486581"/>
</svg>
