<svg width="15" height="3" viewBox="0 0 15 3" fill="none" xmlns="http://www.w3.org/2000/svg">
<g id="Group 544">
<path id="Vector" d="M7.71875 2.31246C8.16425 2.31246 8.52539 1.95131 8.52539 1.50582C8.52539 1.06032 8.16425 0.699177 7.71875 0.699177C7.27325 0.699177 6.91211 1.06032 6.91211 1.50582C6.91211 1.95131 7.27325 2.31246 7.71875 2.31246Z" stroke="black" stroke-width="1.20996" stroke-linecap="round" stroke-linejoin="round"/>
<path id="Vector_2" d="M13.3652 2.31246C13.8107 2.31246 14.1719 1.95131 14.1719 1.50582C14.1719 1.06032 13.8107 0.699177 13.3652 0.699177C12.9197 0.699177 12.5586 1.06032 12.5586 1.50582C12.5586 1.95131 12.9197 2.31246 13.3652 2.31246Z" stroke="black" stroke-width="1.20996" stroke-linecap="round" stroke-linejoin="round"/>
<path id="Vector_3" d="M2.07227 2.31246C2.51776 2.31246 2.87891 1.95131 2.87891 1.50582C2.87891 1.06032 2.51776 0.699175 2.07227 0.699175C1.62677 0.699175 1.26562 1.06032 1.26562 1.50582C1.26562 1.95131 1.62677 2.31246 2.07227 2.31246Z" stroke="black" stroke-width="1.20996" stroke-linecap="round" stroke-linejoin="round"/>
</g>
</svg>
