<svg width="21" height="21" viewBox="0 0 21 21" fill="none" xmlns="http://www.w3.org/2000/svg">
<g id="codesandbox">
<path id="Vector" d="M17.625 13.7187V7.26557C17.6247 6.98266 17.55 6.7048 17.4084 6.45987C17.2669 6.21494 17.0634 6.01154 16.8184 5.87008L11.1719 2.64352C10.9266 2.50193 10.6484 2.42738 10.3652 2.42738C10.082 2.42738 9.80384 2.50193 9.55859 2.64352L3.91211 5.87008C3.6671 6.01154 3.4636 6.21494 3.32202 6.45987C3.18044 6.7048 3.10576 6.98266 3.10547 7.26557V13.7187C3.10576 14.0016 3.18044 14.2795 3.32202 14.5244C3.4636 14.7693 3.6671 14.9727 3.91211 15.1142L9.55859 18.3407C9.80384 18.4823 10.082 18.5569 10.3652 18.5569C10.6484 18.5569 10.9266 18.4823 11.1719 18.3407L16.8184 15.1142C17.0634 14.9727 17.2669 14.7693 17.4084 14.5244C17.55 14.2795 17.6247 14.0016 17.625 13.7187Z" stroke="black" stroke-width="0.806641" stroke-linecap="round" stroke-linejoin="round"/>
<path id="Vector_2" d="M6.73535 4.20844L10.3652 6.3057L13.9951 4.20844" stroke="black" stroke-width="0.806641" stroke-linecap="round" stroke-linejoin="round"/>
<path id="Vector_3" d="M6.73535 16.7759V12.5895L3.10547 10.4922" stroke="black" stroke-width="0.806641" stroke-linecap="round" stroke-linejoin="round"/>
<path id="Vector_4" d="M17.625 10.4922L13.9951 12.5895V16.7759" stroke="black" stroke-width="0.806641" stroke-linecap="round" stroke-linejoin="round"/>
<path id="Vector_5" d="M3.32324 6.4267L10.3652 10.5002L17.4072 6.4267" stroke="#1A87D7" stroke-width="0.806641" stroke-linecap="round" stroke-linejoin="round"/>
<path id="Vector_6" d="M10.3652 18.6231V10.4922" stroke="#1A87D7" stroke-width="0.806641" stroke-linecap="round" stroke-linejoin="round"/>
</g>
</svg>
