<svg width="72" height="72" viewBox="0 0 72 72" fill="none" xmlns="http://www.w3.org/2000/svg">
<path id="Union" fill-rule="evenodd" clip-rule="evenodd" d="M21 10.0193C25.5606 7.38622 30.7339 6.00003 36 6.00003C41.2661 6.00003 46.4394 7.38622 51 10.0193C55.5606 12.6523 59.3477 16.4395 61.9808 21C64.6138 25.5606 66 30.7339 66 36C66 37.8928 65.8209 39.7736 65.4693 41.6182C63.0591 39.9665 60.1423 39.0001 56.9998 39.0001C49.3701 39.0001 43.0709 44.6965 42.123 52.0683C44.3824 52.8855 46.4314 54.142 48.1669 55.7347C48.0573 55.1732 47.9998 54.5932 47.9998 54.0001C47.9998 49.0295 52.0292 45.0001 56.9998 45.0001C59.5832 45.0001 61.918 46.0876 63.5641 47.8416C63.1002 48.9214 62.5719 49.9761 61.9808 51L61.9858 51.0029C59.595 55.1333 56.2453 58.6448 52.2407 61.229C53.1269 63.0776 53.7067 65.1009 53.9144 67.2332C61.612 62.8085 67.5191 55.6201 70.2813 47.0221C70.2792 47.0181 70.2771 47.0141 70.275 47.0102C71.4133 43.4665 72 39.7529 72 36C72 29.6807 70.3366 23.4727 67.1769 18C64.0173 12.5273 59.4727 7.98277 54 4.82311C48.5273 1.66345 42.3193 3.05176e-05 36 3.05176e-05C29.6807 3.05176e-05 23.4727 1.66346 18 4.82312C12.5273 7.98278 7.98274 12.5273 4.82308 18C1.66342 23.4727 0 29.6807 0 36C0 39.7528 0.586632 43.4663 1.72488 47.0099C1.72277 47.0139 1.72066 47.0179 1.71855 47.0219C4.48067 55.6197 10.3875 62.8081 18.0849 67.2328C18.2927 65.1005 18.8726 63.0772 19.7587 61.2286C15.7544 58.6445 12.4049 55.1332 10.0142 51.003L10.0192 51C9.42806 49.9761 8.89974 48.9212 8.43584 47.8414C10.0819 46.0875 12.4166 45 15 45C19.9705 45 24 49.0295 24 54C24 54.5929 23.9426 55.1727 23.833 55.7341C25.5685 54.1416 27.6175 52.8852 29.8767 52.0681C28.9288 44.6963 22.6296 39 15 39C11.8576 39 8.94083 39.9663 6.53072 41.618C6.17906 39.7734 6 37.8927 6 36C6 30.7339 7.38619 25.5606 10.0192 21C12.6523 16.4395 16.4394 12.6523 21 10.0193ZM14.9999 33.0001C18.3136 33.0001 20.9999 30.3138 20.9999 27.0001C20.9999 23.6864 18.3136 21.0001 14.9999 21.0001C11.6861 21.0001 8.99985 23.6864 8.99985 27.0001C8.99985 30.3138 11.6861 33.0001 14.9999 33.0001ZM35.9999 36.0001C37.6567 36.0001 38.9999 34.657 38.9999 33.0001C38.9999 31.3432 37.6567 30.0001 35.9999 30.0001C34.343 30.0001 32.9999 31.3432 32.9999 33.0001C32.9999 34.657 34.343 36.0001 35.9999 36.0001ZM35.9999 42.0001C40.9704 42.0001 44.9999 37.9707 44.9999 33.0001C44.9999 28.0295 40.9704 24.0001 35.9999 24.0001C31.0293 24.0001 26.9999 28.0295 26.9999 33.0001C26.9999 37.9707 31.0293 42.0001 35.9999 42.0001ZM62.9999 27.0001C62.9999 30.3138 60.3136 33.0001 56.9999 33.0001C53.6861 33.0001 50.9999 30.3138 50.9999 27.0001C50.9999 23.6864 53.6861 21.0001 56.9999 21.0001C60.3136 21.0001 62.9999 23.6864 62.9999 27.0001ZM25.1043 63.962C28.4774 65.2775 32.1497 66.0001 35.9999 66.0001C39.8501 66.0001 43.5225 65.2775 46.8956 63.962C44.9916 59.8526 40.8267 57.0001 35.9999 57.0001C31.1732 57.0001 27.0083 59.8526 25.1043 63.962ZM53.9143 67.2333C53.0266 58.1214 45.3449 51.0001 35.9999 51.0001C26.655 51.0001 18.9732 58.1214 18.0855 67.2333C23.3613 70.2658 29.4781 72.0001 35.9999 72.0001C42.5218 72.0001 48.6386 70.2658 53.9143 67.2333Z" fill="url(#paint0_linear_0_334)"/>
<defs>
<linearGradient id="paint0_linear_0_334" x1="36" y1="3.05176e-05" x2="36" y2="72.0001" gradientUnits="userSpaceOnUse">
<stop stop-color="#2186EB"/>
<stop offset="1" stop-color="#6340EE"/>
</linearGradient>
</defs>
</svg>
